# xmcd CD database file
#
# Track frame offsets:
#	150
#	23541
#	54353
#	83976
#	109014
#	147973
#	173193
#	194101
#	224319
#
# Disc length: 3262 seconds
#
# Revision: 1
# Processed by: cddbd v1.5.2PL0 Copyright (c) Steve Scherf et al.
# Submitted via: CDex 1.70beta2
#
DISCID=7b0cbc09
DTITLE=Fabian Zone Trio - Curtain of Life
DYEAR=1900
DGENRE=Jazz
TTITLE0=Streaming
TTITLE1=Thu Rooster
TTITLE2=Too Good
TTITLE3=Astral Light
TTITLE4=Christian Returns!
TTITLE5=Crawl to Finish
TTITLE6=Lord of Time
TTITLE7=Open The Curtain
TTITLE8=Golden Heart
EXTD=
EXTT0=
EXTT1=
EXTT2=
EXTT3=
EXTT4=
EXTT5=
EXTT6=
EXTT7=
EXTT8=
PLAYORDER=
